HIERARCHY
ROOT SpineBase
{
  OFFSET 0.000000 0.000000 0.000000
  CHANNELS 6 Xposition Yposition Zposition Zrotation Xrotation Yrotation
  JOINT SpineMid
  {
    OFFSET -0.000000 31.690941 0.000000
    CHANNELS 3 Zrotation Xrotation Yrotation
    JOINT SpineShoulder
    {
      OFFSET 0.114304 23.507463 -0.741871
      CHANNELS 3 Zrotation Xrotation Yrotation
      JOINT Neck
      {
        OFFSET 0.066773 7.767957 -0.546666
        CHANNELS 3 Zrotation Xrotation Yrotation
        JOINT Head
        {
          OFFSET -4.375561 13.430773 -0.592687
          CHANNELS 3 Zrotation Xrotation Yrotation
          End Site
          {
            OFFSET 0 0 0
          }
        }
      }
      JOINT ShoulderLeft
      {
        OFFSET -16.012225 -4.955148 7.978851
        CHANNELS 3 Zrotation Xrotation Yrotation
        JOINT ElbowLeft
        {
          OFFSET -3.948495 -27.339351 5.040520
          CHANNELS 3 Zrotation Xrotation Yrotation
          JOINT WristLeft
          {
            OFFSET 0.583609 -23.579621 -3.511348
            CHANNELS 3 Zrotation Xrotation Yrotation
            JOINT HandLeft
            {
              OFFSET -0.828071 -7.402386 -0.245730
              CHANNELS 3 Zrotation Xrotation Yrotation
              JOINT HandTipLeft
              {
                OFFSET 0.360679 -7.383090 -0.047496
                CHANNELS 3 Zrotation Xrotation Yrotation
                End Site
                {
                  OFFSET 0 0 0
                }
              }
              JOINT ThumbLeft
              {
                OFFSET 2.020889 -3.542656 -0.454538
                CHANNELS 3 Zrotation Xrotation Yrotation
                End Site
                {
                  OFFSET 0 0 0
                }
              }
            }
          }
        }
      }
      JOINT ShoulderRight
      {
        OFFSET 12.721852 -3.176493 -7.784539
        CHANNELS 3 Zrotation Xrotation Yrotation
        JOINT ElbowRight
        {
          OFFSET 8.073214 -27.262278 -3.661123
          CHANNELS 3 Zrotation Xrotation Yrotation
          JOINT WristRight
          {
            OFFSET 1.114005 -21.742254 -5.410268
            CHANNELS 3 Zrotation Xrotation Yrotation
            JOINT HandRight
            {
              OFFSET -0.466900 -6.948747 -0.964209
              CHANNELS 3 Zrotation Xrotation Yrotation
              JOINT HandTipRight
              {
                OFFSET 0.290492 -7.388258 -0.133907
                CHANNELS 3 Zrotation Xrotation Yrotation
                End Site
                {
                  OFFSET 0 0 0
                }
              }
              JOINT ThumbRight
              {
                OFFSET -3.663456 -1.744296 0.128836
                CHANNELS 3 Zrotation Xrotation Yrotation
                End Site
                {
                  OFFSET 0 0 0
                }
              }
            }
          }
        }
      }
    }
  }
  JOINT HipLeft
  {
    OFFSET -5.797856 -0.194767 -0.319755
    CHANNELS 3 Zrotation Xrotation Yrotation
    JOINT KneeLeft
    {
      OFFSET 3.062832 -35.931208 6.632806
      CHANNELS 3 Zrotation Xrotation Yrotation
      JOINT AnkleLeft
      {
        OFFSET 9.096037 -36.049819 11.068245
        CHANNELS 3 Zrotation Xrotation Yrotation
        JOINT FootLeft
        {
          OFFSET -1.974578 -8.012398 -4.355986
          CHANNELS 3 Zrotation Xrotation Yrotation
          End Site
          {
            OFFSET 0 0 0
          }
        }
      }
    }
  }
  JOINT HipRight
  {
    OFFSET 6.324725 1.582861 -6.060539
    CHANNELS 3 Zrotation Xrotation Yrotation
    JOINT KneeRight
    {
      OFFSET 8.768646 -36.176176 1.331572
      CHANNELS 3 Zrotation Xrotation Yrotation
      JOINT AnkleRight
      {
        OFFSET 5.198123 -35.390063 10.878373
        CHANNELS 3 Zrotation Xrotation Yrotation
        JOINT FootRight
        {
          OFFSET -2.241876 -8.159073 -1.962360
          CHANNELS 3 Zrotation Xrotation Yrotation
          End Site
          {
            OFFSET 0 0 0
          }
        }
      }
    }
  }
}
MOTION
Frames: 7
Frame Time: 0.033333
-26.319445 86.340180 330.918677 0.259036 1.680165 36.968498 0.428189 -0.046723 -36.956567 0.075934 0.030435 0.023520 5.667903 2.926865 1.736990 0.000000 0.000000 0.000000 -75.302132 4.362261 -13.758763 -169.901905 7.939762 -43.911353 16.795850 7.056839 13.376328 -5.269463 34.012654 -52.392283 0.000000 0.000000 0.000000 0.000000 0.000000 0.000000 66.451882 60.121529 -25.493065 153.992744 24.511204 -60.166530 7.907118 18.394525 13.752102 -27.265243 -1.225508 -17.783965 0.000000 0.000000 0.000000 0.000000 0.000000 0.000000 -0.424991 2.989836 -37.019557 0.758218 -4.475736 -0.509194 0.587575 2.242487 0.413051 0.000000 0.000000 0.000000 -3.629702 -0.637570 -37.353493 2.250774 1.026037 0.310031 -12.856553 23.866863 -0.758569 0.000000 0.000000 0.000000
-26.313561 86.388218 330.913682 0.258744 1.694362 36.979925 0.381812 -0.057963 -36.969179 0.037457 0.008814 0.019380 5.904967 3.227882 1.810983 0.000000 0.000000 0.000000 -75.082067 4.694193 -13.510200 -170.243242 6.665082 -41.594823 13.065862 10.552581 0.869832 -8.333573 30.700346 -42.619766 0.000000 0.000000 0.000000 0.000000 0.000000 0.000000 66.983337 59.982550 -25.783662 154.011240 24.334461 -60.066085 8.307357 18.693384 13.372856 -29.084116 -0.279238 -11.374637 0.000000 0.000000 0.000000 0.000000 0.000000 0.000000 -0.450619 2.981094 -37.034521 0.797770 -4.497164 -0.503928 0.018662 2.878441 0.574683 0.000000 0.000000 0.000000 -3.579434 -0.627585 -37.350308 2.216924 0.973385 0.297416 -14.417626 30.490568 -1.040664 0.000000 0.000000 0.000000
-26.327573 86.440258 330.904240 0.245887 1.700213 36.995884 0.321287 -0.075993 -36.986724 -0.006398 -0.022926 0.014211 5.937083 3.507611 1.862482 0.000000 0.000000 0.000000 -74.597603 4.756431 -13.328547 -169.840043 6.609573 -41.889038 10.729274 11.652811 -3.316845 -8.990635 29.060015 -38.255888 0.000000 0.000000 0.000000 0.000000 0.000000 0.000000 67.322121 59.788299 -25.925498 154.483491 24.006040 -59.961075 7.907438 18.369018 13.437984 -29.989621 0.482648 -7.451319 0.000000 0.000000 0.000000 0.000000 0.000000 0.000000 -0.433904 2.959966 -37.048079 0.783172 -4.527325 -0.515498 -0.445767 3.546975 0.696471 0.000000 0.000000 0.000000 -3.494966 -0.641491 -37.352085 2.153691 0.927610 0.285476 -17.771799 40.975674 -0.672358 0.000000 0.000000 0.000000
-26.318349 86.505482 330.865167 0.243004 1.728089 37.008514 0.259620 -0.105688 -37.000535 -0.029822 -0.049181 0.011309 5.813530 3.599298 1.865056 0.000000 0.000000 0.000000 -73.847169 4.602546 -13.217598 -168.583786 7.388824 -44.433398 8.783538 11.020111 -3.044799 -9.523906 28.292645 -36.378132 0.000000 0.000000 0.000000 0.000000 0.000000 0.000000 67.056512 59.628348 -25.685056 155.368058 23.672609 -59.810283 7.309279 17.081558 12.583610 -30.067840 -0.098800 -9.223699 0.000000 0.000000 0.000000 0.000000 0.000000 0.000000 -0.483903 2.931538 -37.067302 0.779662 -4.528522 -0.525943 -0.568244 4.053622 0.686761 0.000000 0.000000 0.000000 -3.469847 -0.653778 -37.356307 2.128837 0.894501 0.277397 -19.092075 44.800028 -0.349333 0.000000 0.000000 0.000000
-26.326447 86.569782 330.825236 0.201351 1.749706 36.989493 0.175163 -0.106148 -36.985151 -0.094639 -0.071902 0.001811 6.119466 3.755132 1.903968 0.000000 0.000000 0.000000 -72.995287 4.107432 -13.281024 -166.184940 9.039907 -49.842593 8.323501 6.607019 7.310252 -7.538712 30.664669 -42.015044 0.000000 0.000000 0.000000 0.000000 0.000000 0.000000 67.644088 59.385059 -25.904654 155.612445 23.319582 -59.773649 6.351455 15.926281 12.490419 -30.413959 0.543870 -6.157813 0.000000 0.000000 0.000000 0.000000 0.000000 0.000000 -0.460079 2.868432 -37.045454 0.695873 -4.509509 -0.552487 -0.472653 3.885149 0.727016 0.000000 0.000000 0.000000 -3.385427 -0.681417 -37.323194 2.087766 0.842622 0.264648 -17.098866 40.434598 -0.980681 0.000000 0.000000 0.000000
-26.334498 86.611772 330.771983 0.114288 1.755393 36.856517 0.074914 -0.080237 -36.857966 -0.163707 -0.085157 -0.011089 6.699977 4.016498 1.981985 0.000000 0.000000 0.000000 -70.605676 3.865278 -12.913934 -165.939458 10.345529 -53.101749 9.892965 4.881408 13.446877 -7.530544 31.376522 -45.767866 0.000000 0.000000 0.000000 0.000000 0.000000 0.000000 68.534582 59.231175 -26.299125 155.723819 23.154191 -59.334926 5.374039 14.261667 11.720536 -28.375972 4.309710 4.109276 0.000000 0.000000 0.000000 0.000000 0.000000 0.000000 -0.403312 2.766673 -36.908407 0.570559 -4.457035 -0.588598 0.188503 3.802571 0.448286 0.000000 0.000000 0.000000 -3.288774 -0.745059 -37.185296 2.065464 0.824189 0.259885 -16.627090 39.188235 -1.083884 0.000000 0.000000 0.000000
-26.328716 86.667069 330.730066 -0.017947 1.756523 36.666901 0.031516 -0.050028 -36.673036 -0.184860 -0.080787 -0.020278 7.027641 4.053280 2.011997 0.000000 0.000000 0.000000 -70.947535 3.396175 -13.244552 -163.907847 10.093257 -55.460175 10.413788 3.475623 18.089012 -5.328265 32.225003 -49.592094 0.000000 0.000000 0.000000 0.000000 0.000000 0.000000 69.830422 58.949214 -26.921274 154.566524 22.838121 -60.349708 3.536599 14.146563 14.913974 -25.589023 5.077043 0.468148 0.000000 0.000000 0.000000 0.000000 0.000000 0.000000 -0.332942 2.643897 -36.717863 0.504092 -4.420462 -0.611830 0.805560 4.043365 0.096938 0.000000 0.000000 0.000000 -3.196443 -0.826576 -36.997679 2.083410 0.826121 0.260837 -13.819404 31.199096 -1.430078 0.000000 0.000000 0.000000
